Coordinates
version=1
nRows=7
nColumns=40
inDegrees=yes

Units are S.I. units (second, meters, Newtons, ...)
If the header above contains a line with 'inDegrees', this indicates whether rotational values are in degrees (yes) or radians (no).

endheader
time	pelvis_tilt	pelvis_list	pelvis_rotation	pelvis_tx	pelvis_ty	pelvis_tz	hip_flexion_r	hip_adduction_r	hip_rotation_r	knee_angle_r	knee_angle_r_beta	ankle_angle_r	subtalar_angle_r	mtp_angle_r	hip_flexion_l	hip_adduction_l	hip_rotation_l	knee_angle_l	knee_angle_l_beta	ankle_angle_l	subtalar_angle_l	mtp_angle_l	lumbar_extension	lumbar_bending	lumbar_rotation	arm_flex_r	arm_add_r	arm_rot_r	elbow_flex_r	pro_sup_r	wrist_flex_r	wrist_dev_r	arm_flex_l	arm_add_l	arm_rot_l	elbow_flex_l	pro_sup_l	wrist_flex_l	wrist_dev_l
      3.67500000	    -25.94783693	     -1.71667219	     -2.56183941	     -0.31396322	      0.88970466	     -1.03686208	     28.12500678	     -4.84270411	     -7.80348823	    109.95263398	      1.91903548	    -16.21477617	      0.00000000	      0.00000000	     65.96254062	     -5.15317163	    -10.55121140	     66.78281179	      1.16557995	     20.78336459	      0.00000000	      0.00000000	      3.49879426	     -4.57001545	     -0.91724873	     89.92573110	    -10.01502081	     21.82875636	     38.37878553	     85.97552821	      0.00000000	      0.00000000	     89.94982422	    -18.86721448	     21.73374759	     45.05887142	     85.21563022	      0.00000000	      0.00000000
      3.68000000	    -26.09420787	     -1.83802516	     -2.55196788	     -0.31451275	      0.88871435	     -1.03646221	     28.17594827	     -4.61991279	     -7.84689847	    109.96007427	      1.91916534	    -16.06085770	      0.00000000	      0.00000000	     66.27320484	     -5.20881348	    -10.34996216	     66.95972564	      1.16866768	     20.83679882	      0.00000000	      0.00000000	      3.51638831	     -4.47105820	     -0.94389978	     89.92603337	     -9.94618653	     21.67095024	     38.44669024	     85.99492263	      0.00000000	      0.00000000	     89.95001523	    -18.87619864	     21.65332215	     45.14771871	     85.28466506	      0.00000000	      0.00000000
      3.68500000	    -26.19808763	     -1.72594906	     -2.60121998	     -0.31483024	      0.88788256	     -1.03630792	     28.21535449	     -4.70865675	     -7.72379334	    109.97212912	      1.91937574	    -16.07070823	      0.00000000	      0.00000000	     66.43770181	     -5.18157753	    -10.45986299	     67.03496463	      1.16998085	     20.87182401	      0.00000000	      0.00000000	      3.51961397	     -4.60314555	     -0.81375724	     89.92674172	    -10.06403777	     21.81896503	     38.51837372	     86.31412899	      0.00000000	      0.00000000	     89.95009368	    -18.76333048	     21.58064902	     45.15964513	     84.86720158	      0.00000000	      0.00000000
      3.69000000	    -26.22454347	     -1.53875544	     -2.57198361	     -0.31521679	      0.88719866	     -1.03631981	     28.18001580	     -4.96017106	     -7.69506879	    109.99055548	      1.91969734	    -16.27147957	      0.00000000	      0.00000000	     66.50957692	     -4.98786879	    -10.53511502	     67.07503550	      1.17068022	     20.99278899	      0.00000000	      0.00000000	      3.41999215	     -4.81569212	     -0.84734573	     89.92654471	     -9.92454025	     21.55093742	     38.49711999	     86.17296803	      0.00000000	      0.00000000	     89.95039572	    -18.83140896	     21.52732115	     45.24192898	     85.17264476	      0.00000000	      0.00000000
      3.69500000	    -26.32841359	     -1.55763497	     -2.56097805	     -0.31560939	      0.88627739	     -1.03609463	     28.20431461	     -4.90239271	     -7.70019166	    110.02253806	      1.92025554	    -16.25556740	      0.00000000	      0.00000000	     66.72962305	     -4.97723015	    -10.47106476	     67.20945348	      1.17302625	     21.05116350	      0.00000000	      0.00000000	      3.41758447	     -4.80223561	     -0.82954247	     89.92704453	     -9.91133859	     21.53371058	     38.55474789	     86.06791869	      0.00000000	      0.00000000	     89.95052106	    -18.81180385	     21.40875856	     45.28488332	     85.08403383	      0.00000000	      0.00000000
      3.70000000	    -26.43850611	     -1.58248968	     -2.49718627	     -0.31609189	      0.88536868	     -1.03599919	     28.21901823	     -4.84434530	     -7.73759561	    110.03870477	      1.92053770	    -16.29016112	      0.00000000	      0.00000000	     66.97186375	     -4.88810618	    -10.34277775	     67.33708949	      1.17525392	     21.16330349	      0.00000000	      0.00000000	      3.41015309	     -4.78801041	     -0.84826020	     89.92740189	     -9.90892582	     21.51182126	     38.61548458	     85.97105163	      0.00000000	      0.00000000	     89.95069513	    -18.78037407	     21.33150405	     45.34240350	     85.35314305	      0.00000000	      0.00000000
      3.70500000	    -26.44852054	     -1.41594791	     -2.47612090	     -0.31643863	      0.88477270	     -1.03597595	     28.19109652	     -5.06649405	     -7.70245408	    110.07905812	      1.92124200	    -16.39617483	      0.00000000	      0.00000000	     67.00794527	     -4.72036973	    -10.43778745	     67.36074848	      1.17566685	     21.23106772	      0.00000000	      0.00000000	      3.28151866	     -4.96896090	     -0.86538374	     89.92777244	     -9.82951314	     21.33276319	     38.70045492	     86.00659657	      0.00000000	      0.00000000	     89.95086100	    -18.83812400	     21.27209528	     45.48056643	     85.32607486	      0.00000000	      0.00000000
